<svg width="13" height="11" viewBox="0 0 13 11" fill="none" xmlns="http://www.w3.org/2000/svg">
  <path fill-rule="evenodd" clip-rule="evenodd" d="M12.8608 3.55426C12.6621 3.78731 12.3242 3.80421 12.1061 3.59201L10.5342 2.06322V10.4293C10.5342 10.7445 10.2951 11 10 11C9.70494 11 9.46575 10.7445 9.46575 10.4293V2.06322L7.89394 3.59201C7.67577 3.80421 7.33787 3.78731 7.13923 3.55426C6.94058 3.32122 6.9564 2.96029 7.17456 2.7481L10 0L12.8254 2.7481C13.0436 2.96029 13.0594 3.32122 12.8608 3.55426Z" fill="#646262"/>
  <path fill-rule="evenodd" clip-rule="evenodd" d="M0.139225 7.44574C0.337875 7.21269 0.67577 7.19579 0.893936 7.40799L2.46575 8.93678V0.570672C2.46575 0.255499 2.70494 0 3 0C3.29506 0 3.53425 0.255499 3.53425 0.570672V8.93678L5.10606 7.40799C5.32423 7.19579 5.66213 7.21269 5.86077 7.44574C6.05942 7.67878 6.0436 8.03971 5.82544 8.2519L3 11L0.174563 8.2519C-0.043603 8.03971 -0.0594242 7.67878 0.139225 7.44574Z" fill="#646262"/>
</svg>
