<svg width="13" height="11" viewBox="0 0 13 11" fill="none" xmlns="http://www.w3.org/2000/svg">
  <path fill-rule="evenodd" clip-rule="evenodd" d="M12.8608 7.44574C12.6621 7.21269 12.3242 7.19579 12.1061 7.40799L10.5342 8.93678V0.570672C10.5342 0.255499 10.2951 0 10 0C9.70494 0 9.46575 0.255499 9.46575 0.570672V8.93678L7.89394 7.40799C7.67577 7.19579 7.33787 7.21269 7.13923 7.44574C6.94058 7.67878 6.9564 8.03971 7.17456 8.2519L10 11L12.8254 8.2519C13.0436 8.03971 13.0594 7.67878 12.8608 7.44574Z" fill="#646262"/>
  <path fill-rule="evenodd" clip-rule="evenodd" d="M0.139225 3.55426C0.337875 3.78731 0.67577 3.80421 0.893936 3.59201L2.46575 2.06322V10.4293C2.46575 10.7445 2.70494 11 3 11C3.29506 11 3.53425 10.7445 3.53425 10.4293V2.06322L5.10606 3.59201C5.32423 3.80421 5.66213 3.78731 5.86077 3.55426C6.05942 3.32122 6.0436 2.96029 5.82544 2.7481L3 0L0.174563 2.7481C-0.043603 2.96029 -0.0594242 3.32122 0.139225 3.55426Z" fill="#646262"/>
</svg>
