<svg width="42" height="40" viewBox="0 0 42 40" fill="none" xmlns="http://www.w3.org/2000/svg">
<path fill-rule="evenodd" clip-rule="evenodd" d="M28.6424 37.849C29.4925 35.3776 31.1925 33.0588 33.8943 29.1381C35.0783 27.4295 36.0042 25.7209 36.7024 24.0581L39.7838 26.5142V37.849H28.6424ZM41.924 28.2228V25.8887V25.4768L37.4614 21.9376C41.2409 9.68748 32.5586 -0.0607368 20.9316 0.000284925C9.30454 -0.0607368 0.622213 9.68748 4.38658 21.9223L-0.00012207 25.4006V25.8735V28.1465V40H2.15528H15.9074C15.8315 39.405 15.7252 38.8253 15.5886 38.2304V38.2151V38.1999V38.1846V38.1693V38.1541L15.5734 38.1083V38.0931V38.0778V38.0473V38.0321L15.5431 37.9405V37.9253V37.91C15.5127 37.8185 15.4975 37.7269 15.4672 37.6202C14.3895 34.264 11.7332 30.8162 9.74473 27.9177C8.62149 26.2854 7.65004 24.5157 6.95181 22.6698L20.9468 11.5792L34.9417 22.6698C34.2283 24.5157 33.2568 26.2854 32.1488 27.9177C30.1603 30.8162 27.4889 34.2792 26.4719 37.6659C26.4415 37.7575 26.4111 37.8642 26.396 37.9558V37.971V37.9863L26.3808 38.0473V38.0626V38.0778V38.0931V38.1083V38.1236L26.3656 38.1846V38.2151L26.3504 38.2609C26.1986 38.8406 26.1076 39.4203 26.0317 40H39.8445H41.9999V37.8337V28.2228H41.924ZM2.15528 26.4532L5.1607 24.0581C5.85893 25.7209 6.78484 27.4143 7.95362 29.1381C10.6403 33.0588 12.3555 35.3776 13.2055 37.849H2.15528V26.4532Z" fill="#006AFF"/>
<path fill-rule="evenodd" clip-rule="evenodd" d="M17.9999 22H20.4778V24.4722H17.9999V22ZM23.9999 25.5278H21.5219V28H23.9999V25.5278ZM17.9999 25.5278H20.4778V28H17.9999V25.5278ZM23.9999 22H21.5219V24.4722H23.9999V22Z" fill="#161B3D"/>
</svg>
