<svg width="22" height="26" viewBox="0 0 22 26" fill="none" xmlns="http://www.w3.org/2000/svg">
<path d="M18.7994 9.37022L18.0546 9.45828L18.7994 9.37022ZM19.3584 14.0983L20.1032 14.0103L19.3584 14.0983ZM2.6416 14.0983L1.89678 14.0103L2.6416 14.0983ZM3.20058 9.37022L3.94539 9.45828L3.20058 9.37022ZM1.55973 16.4465L0.998565 15.949H0.998565L1.55973 16.4465ZM20.4403 16.4465L19.8791 16.9441V16.9441L20.4403 16.4465ZM13.8374 3.84839H13.0874C13.0874 4.17237 13.2955 4.45973 13.6032 4.56089L13.8374 3.84839ZM8.16257 3.84839L8.39676 4.56089C8.70454 4.45973 8.91257 4.17237 8.91257 3.84839H8.16257ZM15.4486 22.8727C15.5993 22.4869 15.4086 22.052 15.0227 21.9014C14.6369 21.7507 14.202 21.9414 14.0514 22.3273L15.4486 22.8727ZM7.94865 22.3273C7.79801 21.9414 7.36311 21.7507 6.97725 21.9014C6.5914 22.052 6.40072 22.4869 6.55135 22.8727L7.94865 22.3273ZM18.2215 19.45H3.77852V20.95H18.2215V19.45ZM18.0546 9.45828L18.6136 14.1864L20.1032 14.0103L19.5442 9.28217L18.0546 9.45828ZM3.38641 14.1864L3.94539 9.45828L2.45577 9.28217L1.89678 14.0103L3.38641 14.1864ZM2.1209 16.9441C2.82236 16.153 3.26652 15.2004 3.38641 14.1864L1.89678 14.0103C1.81532 14.6993 1.51124 15.3708 0.998565 15.949L2.1209 16.9441ZM18.6136 14.1864C18.7335 15.2004 19.1776 16.153 19.8791 16.9441L21.0014 15.949C20.4888 15.3708 20.1847 14.6993 20.1032 14.0103L18.6136 14.1864ZM3.77852 19.45C2.88019 19.45 2.23869 19.021 1.94347 18.5216C1.65993 18.0419 1.66261 17.461 2.1209 16.9441L0.998565 15.949C0.0855643 16.9786 0.0549072 18.2744 0.652208 19.2849C1.23783 20.2756 2.39137 20.95 3.77852 20.95V19.45ZM18.2215 20.95C19.6086 20.95 20.7622 20.2756 21.3478 19.2849C21.9451 18.2744 21.9144 16.9786 21.0014 15.949L19.8791 16.9441C20.3374 17.461 20.3401 18.0419 20.0565 18.5216C19.7613 19.021 19.1198 19.45 18.2215 19.45V20.95ZM14.5874 3.84839V3.72394H13.0874V3.84839H14.5874ZM19.5442 9.28217C19.2014 6.38207 16.9634 4.0864 14.0716 3.1359L13.6032 4.56089C16.0674 5.37086 17.7946 7.25945 18.0546 9.45828L19.5442 9.28217ZM8.91257 3.84839V3.72394H7.41257V3.84839H8.91257ZM3.94539 9.45828C4.20535 7.25945 5.93255 5.37086 8.39676 4.56089L7.92837 3.1359C5.03659 4.0864 2.79864 6.38207 2.45577 9.28217L3.94539 9.45828ZM11 1.75C12.182 1.75 13.0874 2.66232 13.0874 3.72394H14.5874C14.5874 1.77677 12.9521 0.25 11 0.25V1.75ZM11 0.25C9.04787 0.25 7.41257 1.77677 7.41257 3.72394H8.91257C8.91257 2.66232 9.81799 1.75 11 1.75V0.25ZM14.0514 22.3273C13.6274 23.4133 12.4494 24.25 11 24.25V25.75C13.0132 25.75 14.7809 24.5832 15.4486 22.8727L14.0514 22.3273ZM11 24.25C9.5506 24.25 8.37262 23.4133 7.94865 22.3273L6.55135 22.8727C7.21909 24.5832 8.98682 25.75 11 25.75V24.25Z" fill="#161B3D"/>
</svg>
